<?xml version="1.0" encoding="UTF-8" standalone="no"?><!DOCTYPE svg PUBLIC "-//W3C//DTD SVG 1.1//EN" "http://www.w3.org/Graphics/SVG/1.1/DTD/svg11.dtd"><svg width="100%" height="100%" viewBox="0 0 200 200" version="1.1" xmlns="http://www.w3.org/2000/svg" xmlns:xlink="http://www.w3.org/1999/xlink" xml:space="preserve" xmlns:serif="http://www.serif.com/" style="fill-rule:evenodd;clip-rule:evenodd;stroke-linejoin:round;stroke-miterlimit:2;"><rect id="Mesa-de-trabajo1" serif:id="Mesa de trabajo1" x="0" y="0" width="200" height="200" style="fill:none;"/><g id="Mesa-de-trabajo11" serif:id="Mesa de trabajo1"><g><path d="M165.456,25.925l0,42.272c0,-3.157 -0.413,-6.212 -1.196,-9.121c0,-0.008 0,-0.008 -0.009,-0.017c-2.934,-10.936 -11.004,-19.755 -21.476,-23.73l0,-9.404c0,-4.715 3.82,-8.535 8.535,-8.535l5.61,0c4.715,0 8.535,3.82 8.535,8.535" style="fill:#fff;fill-rule:nonzero;"/><path d="M135.844,139.425c0,14.018 -11.365,25.373 -25.373,25.373l-21.156,0c-14.008,0 -25.373,-11.355 -25.373,-25.373l0,-53.478c0,-14.007 11.365,-25.372 25.373,-25.372l21.156,0c14.008,0 25.373,11.365 25.373,25.372l0,53.478Zm27.849,-72.292c0,-0.011 0,-0.011 -0.011,-0.023c-3.803,-14.175 -14.265,-25.607 -27.837,-30.759c-5.019,-1.907 -10.462,-2.955 -16.149,-2.955l-39.604,0c-5.687,0 -11.13,1.048 -16.149,2.955l0,-17.264c0,-6.112 -4.951,-11.064 -11.063,-11.064l-7.272,0c-6.112,0 -11.063,4.952 -11.063,11.064l0,127.341c0,3.937 0.501,7.751 1.439,11.387c0,0 0,0.011 0.011,0.023c5.052,19.639 22.874,34.138 44.097,34.138l39.604,0c23.688,0 43.15,-18.079 45.335,-41.199l0.011,-0.011c0.134,-1.427 0.201,-2.877 0.201,-4.338l0,-67.474c0,-4.093 -0.536,-8.052 -1.55,-11.822" style="fill:#fff;fill-rule:nonzero;"/><path d="M110.854,143.185c0.191,-0.813 0.302,-1.658 0.302,-2.529c0,-0.259 -0.022,-0.512 -0.039,-0.767c-0.002,-0.091 -0.006,-0.137 -0.006,-0.137l-0.001,0c-0.467,-5.732 -5.305,-10.242 -11.217,-10.242c-5.911,0 -10.749,4.51 -11.216,10.242l-0.002,0c0,0 -0.002,0.047 -0.005,0.137c-0.017,0.255 -0.04,0.508 -0.04,0.767c0,0.871 0.111,1.715 0.303,2.529c0.668,4.349 2.995,12.272 10.96,20.497c7.966,-8.224 10.291,-16.148 10.961,-20.497" style="fill:#f3ac1f;fill-rule:nonzero;"/></g></g></svg>