<?xml version="1.0" encoding="UTF-8" standalone="no"?><!DOCTYPE svg PUBLIC "-//W3C//DTD SVG 1.1//EN" "http://www.w3.org/Graphics/SVG/1.1/DTD/svg11.dtd"><svg width="100%" height="100%" viewBox="0 0 200 200" version="1.1" xmlns="http://www.w3.org/2000/svg" xmlns:xlink="http://www.w3.org/1999/xlink" xml:space="preserve" xmlns:serif="http://www.serif.com/" style="fill-rule:evenodd;clip-rule:evenodd;stroke-linejoin:round;stroke-miterlimit:2;"><rect id="Mesa-de-trabajo2" serif:id="Mesa de trabajo2" x="0" y="0" width="200" height="200" style="fill:none;"/><g id="Mesa-de-trabajo21" serif:id="Mesa de trabajo2"><g><g><path d="M125.641,104.898c0.319,-1.886 0.802,-4.729 1.716,-5.333c0.104,-0.068 0.232,-0.123 0.488,-0.06c1.381,0.329 1.076,3.998 0.862,6.685c-0.253,3.165 -0.454,5.675 1.162,6.435c0.029,0.013 0.06,0.029 0.089,0.042c1.671,0.687 3.027,-0.65 4.116,-1.724c1.462,-1.442 2.28,-2.071 3.374,-1.499c0.838,0.428 1.314,1.193 1.442,2.337c-4.44,4.249 -10.84,6.231 -13.047,6.819c-0.682,-1.465 -2.173,-4.975 -2.823,-9.099c0.243,0.042 0.496,0.018 0.75,-0.076c1.175,-0.42 1.452,-2.055 1.872,-4.528m0.561,-7.072c-0.447,0.295 -0.802,0.736 -1.099,1.256c3.476,-7.364 6.827,-7.459 12.222,-4.946c5.382,2.525 7.477,5.173 3.975,12.64c-0.363,0.77 -0.804,1.491 -1.303,2.17c-0.413,-0.567 -0.945,-1.029 -1.601,-1.363c-2.565,-1.303 -4.505,0.608 -5.79,1.875c-0.682,0.674 -1.457,1.439 -1.771,1.334c-0.366,-0.462 -0.175,-2.852 -0.047,-4.434c0.285,-3.544 0.603,-7.529 -1.839,-8.675c-0.191,-0.089 -0.397,-0.162 -0.624,-0.212c-0.768,-0.18 -1.502,-0.057 -2.123,0.355m20.916,-34.365c5.22,-9.54 14.661,-26.802 18.346,-29.628c0.063,5.236 -7.346,24.449 -10.645,33.012c-3.181,8.252 -7.459,16.588 -12.042,23.467c-0.324,0.494 -0.663,0.987 -1.011,1.486c-0.88,-0.551 -1.81,-1.037 -2.737,-1.473l-0.01,-0.005c-0.891,-0.413 -1.815,-0.799 -2.768,-1.11c0.141,-0.483 0.292,-0.974 0.447,-1.47l0.546,-1.739l-0.01,-0.005c2.476,-7.409 5.952,-15.343 9.885,-22.535m-23.731,57.247l0.945,-0.449l0.021,0.037l-0.927,0.486l0.731,1.402l1.551,-0.324c0.595,-0.128 14.622,-3.183 19.372,-13.311c3.199,-6.821 2.324,-11.12 -0.115,-14.04c0.449,-0.635 0.883,-1.264 1.293,-1.886c4.745,-7.124 9.169,-15.745 12.457,-24.274c10.976,-28.476 12.836,-36.444 9.049,-38.76l-1.99,-1.217l-0.452,0.964c-4.1,0.768 -9.488,9.482 -21.869,32.119c-4.372,7.991 -8.195,16.876 -10.767,25.018l-0.522,1.758l0.016,0.008c-0.024,0.086 -0.047,0.165 -0.071,0.251c-3.776,0 -7.631,2.079 -10.827,8.895c-4.583,9.772 1.397,21.939 2.105,23.324" style="fill:#fff;fill-rule:nonzero;"/><path d="M69.158,72.445l1.603,0l0,-8.775c0,-2.029 1.653,-3.68 3.685,-3.68l71.135,0l0.379,-0.938l1.146,-2.836l-72.66,0c-4.111,0 -7.453,3.343 -7.453,7.453l0,11.608l0,-0.01c0,-0.363 0.107,-0.7 0.285,-0.987c0.026,-1.018 0.857,-1.836 1.88,-1.836" style="fill:#fff;fill-rule:nonzero;"/><path d="M177.888,55.281l-15.155,0l-1.525,3.771l16.68,0c2.027,0 3.677,1.653 3.677,3.682l0,9.71l1.886,0c1.042,0 1.886,0.846 1.886,1.886l0,0.005l0.003,-0.005l0,-11.595c0,-4.108 -3.343,-7.453 -7.451,-7.453" style="fill:#fff;fill-rule:nonzero;"/><path d="M69.155,72.437c-1.018,0 -1.859,0.838 -1.888,1.859l0,8.931c0.089,-0.029 0.18,-0.06 0.269,-0.06c1.17,0.031 2.34,0.091 3.507,0.212l0,-7.166l65.651,0l1.559,-3.776l-69.098,0Zm114.306,0l-26.562,0l-1.559,3.776l26.233,0l0,55.638c0,2.04 -1.65,3.687 -3.687,3.687l-75.335,0c-0.481,1.29 -1.079,2.549 -1.739,3.779l77.074,0c4.105,0 7.464,-3.358 7.464,-7.466l0,-57.527c0,-1.05 -0.87,-1.888 -1.888,-1.888" style="fill:#fff;fill-rule:nonzero;"/><path d="M73.978,64.705c0,0.577 0.467,1.045 1.045,1.045l8.117,0c0.577,0 1.045,-0.467 1.045,-1.045c0,-0.575 -0.467,-1.045 -1.045,-1.045l-8.117,0c-0.577,0 -1.045,0.47 -1.045,1.045" style="fill:#fff;fill-rule:nonzero;"/><path d="M170.27,65.749l8.119,0c0.575,0 1.042,-0.467 1.042,-1.045c0,-0.575 -0.467,-1.042 -1.042,-1.042l-8.119,0c-0.575,0 -1.039,0.467 -1.039,1.042c0,0.577 0.465,1.045 1.039,1.045" style="fill:#fff;fill-rule:nonzero;"/><path d="M36.202,136.553c-1.828,0.12 -3.596,-0.509 -4.978,-1.739c-1.348,-1.199 -2.188,-2.907 -2.277,-4.735c-0.12,-1.831 0.509,-3.599 1.739,-4.978c1.23,-1.379 2.907,-2.188 4.737,-2.28c3.776,-0.209 7.043,2.7 7.252,6.477c0.12,1.828 -0.509,3.599 -1.708,4.978c-1.23,1.379 -2.907,2.188 -4.766,2.277m8.425,-7.375c-0.272,-4.857 -4.468,-8.602 -9.323,-8.305c-2.34,0.12 -4.497,1.17 -6.087,2.938c-1.559,1.771 -2.366,4.019 -2.217,6.388c0.12,2.366 1.17,4.526 2.938,6.085c1.17,1.047 2.578,1.737 4.077,2.068c0.75,0.149 1.528,0.209 2.309,0.149c2.369,-0.12 4.526,-1.17 6.085,-2.938c1.588,-1.768 2.369,-4.017 2.22,-6.385" style="fill:#fff;fill-rule:nonzero;"/><path d="M55.448,153.88c-0.569,1.139 -1.468,2.097 -2.578,2.786c-2.04,1.23 -4.526,1.35 -6.657,0.272c-1.648,-0.841 -2.875,-2.249 -3.447,-3.988c-0.569,-1.739 -0.449,-3.627 0.392,-5.247c1.708,-3.387 5.845,-4.766 9.232,-3.058c1.018,0.512 1.859,1.23 2.518,2.16c1.47,2.1 1.679,4.797 0.541,7.075m-2.188,-10.971c-4.346,-2.22 -9.652,-0.452 -11.841,3.896c-0.629,1.259 -0.961,2.638 -0.961,3.988c0,0.93 0.151,1.857 0.452,2.758c0.75,2.249 2.309,4.077 4.406,5.126c0.721,0.358 1.439,0.598 2.188,0.778c2.16,0.449 4.437,0.06 6.385,-1.139c1.41,-0.841 2.549,-2.068 3.298,-3.567c1.468,-2.907 1.199,-6.385 -0.661,-9.054c-0.838,-1.199 -1.977,-2.157 -3.267,-2.786" style="fill:#fff;fill-rule:nonzero;"/><path d="M66.96,104.806c1.708,-3.387 5.845,-4.766 9.234,-3.058c3.387,1.708 4.766,5.876 3.055,9.234c-0.838,1.648 -2.246,2.878 -3.985,3.447c-1.739,0.598 -3.627,0.449 -5.247,-0.392c-1.648,-0.807 -2.878,-2.217 -3.447,-3.985c-0.569,-1.739 -0.449,-3.599 0.389,-5.247m2.16,11.002c0.718,0.358 1.439,0.598 2.186,0.75c1.53,0.329 3.089,0.238 4.557,-0.272c2.249,-0.718 4.077,-2.306 5.126,-4.406c2.188,-4.346 0.449,-9.684 -3.925,-11.872c-3.868,-1.948 -8.456,-0.778 -11.002,2.549c-0.332,0.42 -0.629,0.898 -0.87,1.379c-1.05,2.1 -1.23,4.497 -0.481,6.746c0.3,0.93 0.781,1.799 1.35,2.549c0.81,1.079 1.828,1.948 3.058,2.578" style="fill:#fff;fill-rule:nonzero;"/><path d="M80.839,151.782c-0.389,1.799 -1.439,3.356 -2.967,4.377c-1.53,0.99 -3.39,1.348 -5.186,0.958c-1.799,-0.36 -3.327,-1.408 -4.348,-2.938c-1.739,-2.638 -1.408,-6.085 0.629,-8.333c0.36,-0.449 0.81,-0.838 1.35,-1.199c1.139,-0.75 2.397,-1.139 3.716,-1.139c0.481,0 0.961,0.06 1.439,0.149c1.53,0.3 2.818,1.079 3.808,2.22c0.212,0.238 0.389,0.478 0.569,0.75c0.99,1.528 1.35,3.356 0.99,5.155m0.629,-6.236c-1.05,-1.619 -2.549,-2.786 -4.317,-3.447c-0.42,-0.149 -0.838,-0.269 -1.259,-0.36c-1.619,-0.329 -3.267,-0.209 -4.797,0.36c-0.658,0.209 -1.259,0.509 -1.857,0.898c-0.961,0.632 -1.739,1.41 -2.369,2.28l-0.031,0c-2.008,2.909 -2.188,6.866 -0.149,9.953c1.319,1.977 3.298,3.327 5.607,3.808c2.306,0.478 4.675,0.029 6.654,-1.259c1.948,-1.29 3.327,-3.27 3.776,-5.576c0.449,-2.22 0.091,-4.437 -1.079,-6.325c-0.031,-0.12 -0.12,-0.212 -0.18,-0.332" style="fill:#fff;fill-rule:nonzero;"/><path d="M91.631,133.855c-1.23,1.379 -2.907,2.188 -4.737,2.277c-3.776,0.24 -7.043,-2.666 -7.255,-6.474c-0.238,-3.779 2.669,-7.046 6.477,-7.255c3.776,-0.212 7.043,2.698 7.255,6.474c0.089,1.831 -0.509,3.599 -1.739,4.978m-5.636,-13.4c-4.677,0.269 -8.333,4.197 -8.333,8.843l0,0.481c0.24,4.077 3.207,7.344 7.043,8.153c0.75,0.149 1.499,0.209 2.309,0.149c2.34,-0.12 4.497,-1.167 6.085,-2.935c1.559,-1.739 2.369,-4.019 2.22,-6.388c-0.269,-4.855 -4.466,-8.602 -9.323,-8.302" style="fill:#fff;fill-rule:nonzero;"/><path d="M100.633,134.478c-0.52,2.439 -1.235,4.842 -2.178,7.119c-0.52,1.397 -1.17,2.763 -1.886,4.095c-3.217,5.98 -7.866,11.117 -13.716,14.951c-9.655,6.338 -21.193,8.32 -32.438,5.591c-10.206,-2.47 -19.014,-8.678 -24.768,-17.455c-7.443,-11.342 -8.84,-25.645 -3.672,-38.256c0.292,-0.389 1.039,-1.267 2.013,-1.397c0.716,-0.097 1.496,0.196 2.374,0.877l0.389,0.292c0.261,0.227 0.52,0.457 0.812,0.65l2.504,1.624c6.435,3.479 14.397,3.283 20.67,-0.844c7.054,-4.649 10.436,-13.003 8.647,-21.159l-0.358,-1.4c-0.031,-0.162 -0.097,-0.292 -0.131,-0.42l-0.065,-0.131c-0.358,-1.301 -0.358,-2.47 0.034,-3.024c0.227,-0.358 0.682,-0.616 1.332,-0.716c0.097,-0.031 0.196,-0.063 0.292,-0.063c1.269,0.031 2.536,0.097 3.802,0.227c0.943,0.097 1.919,0.227 2.894,0.389c11.441,1.951 21.224,8.354 27.531,18.006c6.077,9.198 8.158,20.25 5.915,31.041m-2.374,-33.38c-6.954,-10.629 -17.745,-17.683 -30.356,-19.861c-1.204,-0.193 -2.405,-0.355 -3.609,-0.454c-1.298,-0.128 -2.598,-0.193 -3.899,-0.227l-0.196,0.034l-0.065,0c-2.729,0.292 -4.129,1.59 -4.81,2.632c-1.494,2.243 -0.974,5.069 -0.551,6.631l0.128,0.324c0.034,0.097 0.065,0.196 0.099,0.326l0.031,0.162l0.034,0.065c1.786,6.662 -0.877,13.65 -6.631,17.453c-6.014,3.933 -13.946,3.348 -19.341,-1.429l-2.891,-1.593c-0.943,-0.292 -1.886,-0.358 -2.828,-0.227c-2.797,0.42 -4.552,2.664 -5.006,3.314l-0.227,0.423c-5.785,13.977 -4.322,29.837 3.964,42.416c6.372,9.686 16.058,16.544 27.335,19.273c0.488,0.131 0.977,0.23 1.465,0.326c11.796,2.437 24.214,0.097 34.289,-6.5c7.085,-4.649 12.611,-11.021 16.121,-18.495c0.65,-1.332 1.204,-2.698 1.724,-4.095c0.716,-2.016 1.301,-4.097 1.755,-6.242c2.47,-11.929 0.162,-24.083 -6.534,-34.258" style="fill:#fff;fill-rule:nonzero;"/></g></g></g></svg>