<?xml version="1.0" encoding="UTF-8" standalone="no"?><!DOCTYPE svg PUBLIC "-//W3C//DTD SVG 1.1//EN" "http://www.w3.org/Graphics/SVG/1.1/DTD/svg11.dtd"><svg width="100%" height="100%" viewBox="0 0 200 200" version="1.1" xmlns="http://www.w3.org/2000/svg" xmlns:xlink="http://www.w3.org/1999/xlink" xml:space="preserve" xmlns:serif="http://www.serif.com/" style="fill-rule:evenodd;clip-rule:evenodd;stroke-linejoin:round;stroke-miterlimit:2;"><rect id="Mesa-de-trabajo3" serif:id="Mesa de trabajo3" x="0" y="0" width="200" height="200" style="fill:none;"/><g id="Mesa-de-trabajo31" serif:id="Mesa de trabajo3"><g><path d="M72.856,70.225c-0.462,0.315 -0.781,0.799 -0.885,1.35l-0.688,3.596c-1.966,0.168 -3.903,0.571 -5.784,1.201l-2.058,-3.032c-0.315,-0.462 -0.802,-0.78 -1.35,-0.884c-0.552,-0.107 -1.119,0.012 -1.582,0.327l-7.843,5.328c-0.462,0.315 -0.781,0.8 -0.885,1.351c-0.104,0.548 0.013,1.117 0.327,1.579l2.059,3.032c-1.278,1.516 -2.366,3.169 -3.247,4.935l-3.596,-0.686c-0.549,-0.105 -1.119,0.012 -1.579,0.329c-0.464,0.314 -0.783,0.799 -0.888,1.348l-1.778,9.316c-0.218,1.144 0.532,2.248 1.677,2.465l3.597,0.686c0.168,1.969 0.57,3.904 1.202,5.784l-3.031,2.062c-0.464,0.313 -0.786,0.799 -0.888,1.347c-0.105,0.549 0.012,1.119 0.327,1.582l5.33,7.843c0.314,0.462 0.8,0.781 1.348,0.885c0.551,0.105 1.117,-0.012 1.58,-0.327l3.032,-2.059c1.518,1.277 3.167,2.363 4.935,3.247l-0.685,3.597c-0.218,1.142 0.533,2.248 1.677,2.464l9.314,1.778c0.136,0.026 0.267,0.038 0.397,0.038c0.993,-0 1.875,-0.703 2.068,-1.713l0.686,-3.594c1.967,-0.171 3.903,-0.573 5.782,-1.204l2.062,3.031c0.314,0.464 0.8,0.783 1.351,0.887c0.548,0.104 1.116,-0.013 1.579,-0.327l7.843,-5.33c0.964,-0.654 1.214,-1.967 0.559,-2.931l-2.062,-3.031c1.281,-1.516 2.368,-3.168 3.25,-4.934l3.596,0.686c1.142,0.215 2.246,-0.533 2.465,-1.678l1.776,-9.314c0.108,-0.549 -0.012,-1.117 -0.326,-1.58c-0.314,-0.464 -0.8,-0.783 -1.35,-0.887l-3.594,-0.686c-0.169,-1.967 -0.574,-3.903 -1.204,-5.782l3.032,-2.062c0.964,-0.654 1.212,-1.964 0.559,-2.928l-5.331,-7.843c-0.315,-0.464 -0.8,-0.781 -1.35,-0.888c-0.546,-0.105 -1.117,0.013 -1.58,0.327l-3.031,2.064c-1.516,-1.279 -3.169,-2.368 -4.937,-3.248l0.686,-3.597c0.221,-1.144 -0.532,-2.248 -1.674,-2.464c0,0 -9.581,-1.817 -9.713,-1.817c-0.419,0 -0.833,0.127 -1.185,0.365Zm-7.367,10.651c2.43,-1 4.986,-1.532 7.592,-1.577c0.999,-0.019 1.849,-0.733 2.036,-1.715l0.602,-3.148l5.17,0.987l-0.6,3.148c-0.187,0.982 0.339,1.959 1.262,2.343c2.407,1.002 4.588,2.436 6.476,4.262c0.72,0.695 1.827,0.789 2.654,0.226l2.655,-1.804l2.961,4.355l-2.657,1.805c-0.827,0.561 -1.147,1.624 -0.765,2.547c1.002,2.43 1.534,4.983 1.579,7.592c0.016,0.999 0.732,1.848 1.712,2.036l3.15,0.6l-0.989,5.172l-3.148,-0.6c-0.984,-0.19 -1.959,0.34 -2.343,1.262c-1,2.407 -2.435,4.588 -4.262,6.478c-0.694,0.719 -0.789,1.824 -0.228,2.649l1.805,2.657l-4.357,2.961l-1.804,-2.657c-0.561,-0.825 -1.624,-1.144 -2.546,-0.765c-2.432,1.003 -4.986,1.534 -7.595,1.579c-0.998,0.018 -1.848,0.732 -2.035,1.713l-0.6,3.148l-5.172,-0.986l0.6,-3.149c0.188,-0.98 -0.339,-1.957 -1.262,-2.341c-2.41,-1.003 -4.588,-2.436 -6.479,-4.263c-0.719,-0.692 -1.826,-0.787 -2.648,-0.225l-2.657,1.804l-2.961,-4.357l2.657,-1.802c0.825,-0.562 1.144,-1.627 0.764,-2.549c-1,-2.432 -1.534,-4.986 -1.577,-7.594c-0.018,-0.998 -0.732,-1.848 -1.713,-2.035l-3.149,-0.6l0.986,-5.175l3.15,0.603c0.98,0.187 1.957,-0.34 2.341,-1.262c1.002,-2.407 2.436,-4.588 4.263,-6.479c0.694,-0.719 0.787,-1.824 0.226,-2.649l-1.804,-2.655l4.353,-2.961l1.805,2.655c0.403,0.593 1.065,0.923 1.747,0.923c0.269,0 0.542,-0.051 0.802,-0.158Z" style="fill:#f9f9fc;fill-rule:nonzero;"/><path d="M64.95,87.749c-3.349,2.276 -5.61,5.718 -6.37,9.694c-0.758,3.976 0.079,8.008 2.353,11.357c2.276,3.349 5.718,5.612 9.692,6.368c0.957,0.181 1.908,0.27 2.847,0.27c7.126,-0 13.496,-5.062 14.879,-12.316c1.566,-8.207 -3.835,-16.158 -12.044,-17.726c-0.957,-0.183 -1.916,-0.273 -2.87,-0.273c-3.007,0 -5.945,0.898 -8.487,2.625Zm-0.53,18.682c-1.64,-2.417 -2.243,-5.327 -1.696,-8.198c0.548,-2.869 2.179,-5.353 4.595,-6.995c1.833,-1.247 3.954,-1.896 6.124,-1.896c0.689,0 1.383,0.067 2.074,0.197c5.923,1.13 9.824,6.869 8.693,12.795c-0.546,2.87 -2.181,5.352 -4.596,6.995c-2.417,1.64 -5.328,2.245 -8.197,1.696l-0.001,0c-2.869,-0.545 -5.353,-2.178 -6.996,-4.594Z" style="fill:#f9f9fc;fill-rule:nonzero;"/><path d="M33.19,53.442c-0.063,0 -6.183,0.873 -6.183,0.873c-0.355,0.051 -0.673,0.238 -0.887,0.526c-0.215,0.286 -0.307,0.644 -0.256,0.998l0.333,2.314c-1.154,0.51 -2.238,1.155 -3.242,1.925l-1.874,-1.402c-0.285,-0.215 -0.643,-0.305 -0.999,-0.256c-0.353,0.05 -0.672,0.24 -0.885,0.526l-3.628,4.846c-0.215,0.285 -0.305,0.644 -0.254,0.999c0.05,0.353 0.24,0.67 0.524,0.885l1.874,1.402c-0.459,1.18 -0.771,2.403 -0.936,3.653l-2.314,0.332c-0.353,0.053 -0.673,0.241 -0.887,0.526c-0.215,0.286 -0.305,0.644 -0.256,0.999l0.862,5.993c0.105,0.736 0.786,1.246 1.522,1.139l2.314,-0.332c0.511,1.152 1.155,2.238 1.927,3.242l-1.402,1.874c-0.215,0.285 -0.305,0.644 -0.254,0.998c0.05,0.352 0.24,0.672 0.524,0.885l4.845,3.63c0.596,0.445 1.44,0.324 1.886,-0.272l1.402,-1.872c1.18,0.457 2.403,0.77 3.653,0.936l0.332,2.314c0.051,0.353 0.241,0.67 0.526,0.885c0.235,0.175 0.52,0.269 0.808,0.269c0.063,-0 6.183,-0.875 6.183,-0.875c0.736,-0.105 1.247,-0.786 1.141,-1.522l-0.332,-2.314c1.152,-0.51 2.238,-1.155 3.242,-1.927l1.874,1.402c0.594,0.447 1.437,0.326 1.883,-0.27l3.628,-4.845c0.447,-0.594 0.326,-1.439 -0.27,-1.884l-1.872,-1.402c0.457,-1.182 0.771,-2.404 0.936,-3.654l2.314,-0.332c0.353,-0.051 0.672,-0.24 0.885,-0.526c0.213,-0.285 0.305,-0.644 0.256,-0.998l-0.86,-5.993c-0.107,-0.735 -0.786,-1.243 -1.523,-1.141l-2.314,0.333c-0.51,-1.154 -1.155,-2.239 -1.927,-3.242l1.402,-1.872c0.215,-0.286 0.307,-0.646 0.256,-0.998c-0.05,-0.355 -0.24,-0.673 -0.524,-0.888l-4.845,-3.628c-0.286,-0.215 -0.646,-0.307 -0.999,-0.256c-0.355,0.053 -0.672,0.24 -0.887,0.526l-1.402,1.874c-1.182,-0.457 -2.403,-0.771 -3.654,-0.938l-0.332,-2.312c-0.096,-0.672 -0.67,-1.154 -1.332,-1.154Zm-9.307,9.355c1.259,-1.107 2.692,-1.959 4.256,-2.527c0.6,-0.218 0.964,-0.825 0.872,-1.458l-0.291,-2.024l3.329,-0.478l0.289,2.026c0.092,0.631 0.612,1.111 1.249,1.152c1.662,0.105 3.275,0.517 4.794,1.228c0.58,0.269 1.266,0.096 1.649,-0.413l1.227,-1.64l2.693,2.014l-1.231,1.642c-0.383,0.51 -0.353,1.217 0.069,1.696c1.109,1.259 1.959,2.692 2.528,4.256c0.218,0.599 0.824,0.963 1.456,0.872l2.026,-0.289l0.478,3.326l-2.026,0.291c-0.63,0.091 -1.111,0.612 -1.152,1.249c-0.105,1.662 -0.519,3.273 -1.227,4.797c-0.272,0.578 -0.099,1.263 0.41,1.645l1.643,1.23l-2.016,2.69l-1.64,-1.228c-0.513,-0.383 -1.221,-0.355 -1.699,0.067c-1.259,1.109 -2.69,1.959 -4.255,2.527c-0.599,0.219 -0.964,0.825 -0.873,1.456l0.291,2.027l-3.327,0.478l-0.291,-2.026c-0.091,-0.631 -0.611,-1.111 -1.249,-1.152c-1.661,-0.105 -3.273,-0.519 -4.795,-1.228c-0.181,-0.085 -0.377,-0.127 -0.568,-0.127c-0.413,0 -0.818,0.191 -1.078,0.54l-1.228,1.64l-2.692,-2.016l1.23,-1.642c0.383,-0.508 0.355,-1.217 -0.067,-1.694c-1.109,-1.26 -1.96,-2.692 -2.53,-4.258c-0.216,-0.599 -0.827,-0.964 -1.455,-0.872l-2.027,0.291l-0.478,-3.327l2.026,-0.292c0.631,-0.091 1.113,-0.609 1.154,-1.247c0.105,-1.661 0.517,-3.275 1.228,-4.794c0.27,-0.578 0.096,-1.266 -0.413,-1.649l-1.642,-1.227l2.017,-2.69l1.639,1.228c0.241,0.18 0.524,0.269 0.808,0.269c0.318,-0 0.637,-0.114 0.889,-0.337Z" style="fill:#f9f9fc;fill-rule:nonzero;"/><path d="M31.352,63.283c-5.28,0.758 -8.959,5.67 -8.201,10.95c0.691,4.816 4.839,8.3 9.57,8.299c0.454,0 0.916,-0.034 1.38,-0.098c5.279,-0.759 8.958,-5.67 8.201,-10.951c-0.692,-4.816 -4.84,-8.298 -9.57,-8.298c-0.456,0 -0.917,0.032 -1.38,0.098Zm-5.537,10.567c-0.546,-3.811 2.109,-7.355 5.918,-7.903c0.336,-0.048 0.667,-0.07 0.998,-0.07c3.412,-0 6.408,2.514 6.907,5.988c0.545,3.811 -2.109,7.357 -5.92,7.903c-0.334,0.048 -0.667,0.072 -0.998,0.072c-3.415,-0 -6.406,-2.515 -6.906,-5.99Z" style="fill:#f9f9fc;fill-rule:nonzero;"/><path d="M125.083,40.56c-5.311,0 -9.644,4.334 -9.644,9.644l0,33.317c-0,1.239 0.381,2.406 0.977,3.453c0.358,0.573 0.786,1.144 1.262,1.643c1.452,1.62 3.453,2.834 5.239,3.596l0,11.074c0,0.691 0.381,1.309 1,1.643c0.261,0.143 0.571,0.215 0.857,0.215c0.358,0 0.738,-0.096 1.047,-0.311l17.432,-11.692l33.793,0c5.309,-0 9.644,-4.334 9.644,-9.621l0,-33.317c0,-5.311 -4.335,-9.644 -9.644,-9.644l-51.964,0Zm1.55,50.367c-0,-0.809 -0.524,-1.547 -1.285,-1.785c-2.931,-0.906 -6.193,-3.453 -6.193,-5.62l-0,-33.317c0,-3.263 2.667,-5.93 5.928,-5.93l51.964,-0c3.261,0 5.928,2.667 5.928,5.93l0,33.317c0,3.238 -2.667,5.905 -5.928,5.905l-34.364,0c-0.38,-0 -0.738,0.096 -1.049,0.311l-15.002,10.074l0,-8.885Z" style="fill:#f9f9fc;fill-rule:nonzero;"/><path d="M119.158,79.282l-17.575,-0c0.573,1.214 1.074,2.454 1.501,3.716l16.074,0l0,-3.716Zm26.268,13.002l0,50.939l-78.063,0l-0,-5.454c-1.095,0.096 -3.716,0.143 -3.716,0.143l0,6.026l-13.623,6.952c-0.047,0.025 -0.07,0.048 -0.117,0.072c-0.025,0.023 -0.072,0.048 -0.096,0.072c-0.072,0.047 -0.118,0.095 -0.19,0.143l-0.072,0.07c-0.072,0.073 -0.143,0.168 -0.215,0.261l-0.023,0.026c-0.048,0.093 -0.095,0.165 -0.143,0.261c0,0.047 -0.025,0.07 -0.025,0.118c-0.047,0.072 -0.047,0.143 -0.07,0.215c-0.023,0.025 -0.023,0.072 -0.023,0.118c-0.025,0.073 -0.025,0.143 -0.025,0.215l0,5.121c-0,1.047 0.811,1.856 1.858,1.856l111.499,-0c1.024,0 1.858,-0.809 1.858,-1.856l0,-5.121c-0,-0.072 -0.023,-0.142 -0.023,-0.215c0,-0.047 -0.025,-0.093 -0.025,-0.143c-0.025,-0.07 -0.048,-0.118 -0.072,-0.19c0,-0.048 -0.023,-0.095 -0.048,-0.118c-0.023,-0.072 -0.072,-0.143 -0.095,-0.215c-0.023,-0.023 -0.048,-0.047 -0.048,-0.096c-0.07,-0.07 -0.143,-0.165 -0.213,-0.238c-0.025,-0.023 -0.048,-0.047 -0.072,-0.07c-0.072,-0.048 -0.12,-0.096 -0.19,-0.143c-0.048,-0.023 -0.072,-0.048 -0.12,-0.072c-0.048,-0.023 -0.072,-0.047 -0.118,-0.072l-14.076,-6.952l0,-51.655l-3.714,0Zm-79.47,54.653l80.898,-0l7.573,3.764l-95.83,0l7.358,-3.764Zm-13.215,7.478l107.785,0l-0,1.309l-107.785,0l-0,-1.309Z" style="fill:#f9f9fc;fill-rule:nonzero;"/><path d="M104.226,86.974c0.311,1.215 0.548,2.452 0.716,3.714l16.098,0l0,-3.714l-16.814,-0Zm31.388,9.073l-0,32.793l-45.723,-0c-1.738,1.38 -3.573,2.644 -5.525,3.739l53.107,-0c1.024,0 1.858,-0.834 1.858,-1.881l0,-37.151l-3.716,2.501Z" style="fill:#f9f9fc;fill-rule:nonzero;"/><path d="M103.156,137.628c0,2.189 1.786,3.976 4.001,3.976c2.191,0 3.977,-1.786 3.977,-3.976c0,-2.216 -1.786,-4.002 -3.977,-4.002c-2.214,0 -4.001,1.786 -4.001,4.002Zm2.214,0c-0,-0.977 0.811,-1.788 1.786,-1.788c0.952,0 1.761,0.811 1.761,1.788c0,0.951 -0.809,1.761 -1.761,1.761c-0.976,0 -1.786,-0.811 -1.786,-1.761Z" style="fill:#f9f9fc;fill-rule:nonzero;"/><path d="M143.739,57.505l-11.166,5.54c-0.067,0.039 -0.129,0.095 -0.181,0.169c-0.056,0.072 -0.095,0.169 -0.126,0.291c-0.029,0.123 -0.053,0.276 -0.072,0.467c-0.022,0.188 -0.029,0.412 -0.029,0.662c0,0.497 0.031,0.868 0.095,1.117c0.063,0.247 0.162,0.409 0.298,0.486l11.181,5.571c0.148,0.069 0.266,0.108 0.359,0.117c0.091,0.01 0.168,-0.031 0.232,-0.117c0.064,-0.089 0.11,-0.234 0.14,-0.437c0.028,-0.204 0.032,-1.576 0.015,-1.815c-0.022,-0.238 -0.056,-0.428 -0.105,-0.57c-0.048,-0.139 -0.118,-0.245 -0.209,-0.313c-0.093,-0.067 -0.212,-0.137 -0.358,-0.204l-8.238,-3.821l8.397,-3.935c0.118,-0.058 0.21,-0.117 0.278,-0.177c0.067,-0.057 0.123,-0.153 0.161,-0.291c0.039,-0.134 0.064,-0.32 0.08,-0.554c0.015,-0.234 0.022,-0.551 0.022,-0.948c0,-0.583 -0.058,-0.97 -0.174,-1.16c-0.07,-0.11 -0.165,-0.165 -0.291,-0.165c-0.088,-0 -0.191,0.028 -0.31,0.085Z" style="fill:#f9f9fc;fill-rule:nonzero;"/><path d="M155.907,51.419c-0.221,0.025 -0.397,0.06 -0.532,0.11c-0.137,0.048 -0.242,0.114 -0.321,0.197c-0.079,0.083 -0.137,0.185 -0.175,0.314l-8.718,24.476c-0.057,0.167 -0.079,0.31 -0.057,0.432c0.019,0.12 0.095,0.221 0.225,0.299c0.131,0.076 0.324,0.136 0.575,0.172c0.251,0.041 0.578,0.058 0.976,0.058c0.321,0 0.589,-0.012 0.797,-0.035c0.207,-0.025 0.383,-0.06 0.524,-0.11c0.139,-0.048 0.25,-0.111 0.327,-0.19c0.079,-0.077 0.142,-0.18 0.19,-0.307l8.704,-24.492c0.05,-0.165 0.063,-0.308 0.042,-0.431c-0.018,-0.12 -0.091,-0.219 -0.216,-0.296c-0.129,-0.079 -0.315,-0.139 -0.562,-0.177c-0.25,-0.039 -0.577,-0.058 -0.983,-0.058c-0.313,-0 -0.577,0.013 -0.796,0.037Z" style="fill:#f9f9fc;fill-rule:nonzero;"/><path d="M160.529,57.505c-0.063,0.089 -0.107,0.234 -0.13,0.438c-0.025,0.203 -0.031,1.577 -0.015,1.815c0.015,0.238 0.047,0.426 0.095,0.568c0.048,0.14 0.118,0.245 0.21,0.314c0.093,0.067 0.216,0.136 0.372,0.203l8.238,3.819l-8.398,3.938c-0.115,0.048 -0.209,0.105 -0.276,0.168c-0.069,0.063 -0.123,0.164 -0.161,0.298c-0.041,0.137 -0.066,0.321 -0.08,0.555c-0.016,0.231 -0.01,1.48 0.015,1.669c0.023,0.19 0.067,0.334 0.13,0.428c0.064,0.099 0.145,0.152 0.241,0.161c0.096,0.01 0.215,-0.019 0.351,-0.086l11.181,-5.541c0.069,-0.029 0.13,-0.08 0.183,-0.15c0.054,-0.074 0.096,-0.174 0.134,-0.299c0.032,-0.129 0.058,-0.283 0.079,-0.467c0.019,-0.185 0.026,-0.403 0.026,-0.656c0,-0.497 -0.035,-0.871 -0.105,-1.123c-0.076,-0.253 -0.174,-0.408 -0.301,-0.466l-11.197,-5.585c-0.136,-0.067 -0.254,-0.105 -0.351,-0.115c-0.01,-0.001 -0.019,-0.001 -0.028,-0.001c-0.083,-0 -0.155,0.038 -0.213,0.117Z" style="fill:#f9f9fc;fill-rule:nonzero;"/></g></g></svg>