<?xml version="1.0" encoding="UTF-8" standalone="no"?><!DOCTYPE svg PUBLIC "-//W3C//DTD SVG 1.1//EN" "http://www.w3.org/Graphics/SVG/1.1/DTD/svg11.dtd"><svg width="100%" height="100%" viewBox="0 0 200 200" version="1.1" xmlns="http://www.w3.org/2000/svg" xmlns:xlink="http://www.w3.org/1999/xlink" xml:space="preserve" xmlns:serif="http://www.serif.com/" style="fill-rule:evenodd;clip-rule:evenodd;stroke-linejoin:round;stroke-miterlimit:2;"><rect id="Mesa-de-trabajo4" serif:id="Mesa de trabajo4" x="0" y="0" width="200" height="200" style="fill:none;"/><g id="Mesa-de-trabajo41" serif:id="Mesa de trabajo4"><g><path d="M138.465,170.772l-73.814,0c-2.857,0 -5.196,-2.316 -5.196,-5.147l0,-39.889l84.47,0l0,39.889c0,2.831 -2.342,5.147 -5.461,5.147Zm-73.814,-141.543l74.076,0c2.857,0 5.198,2.316 5.198,5.147l0,84.926l-84.47,0l0,-84.926c0,-2.831 2.077,-5.147 5.196,-5.147Zm73.814,-6.434l-73.814,0c-6.496,0 -11.694,5.147 -11.694,11.581l0,131.249c0,6.434 5.199,11.581 11.694,11.581l74.076,0c6.496,0 11.694,-5.147 11.694,-11.581l0,-131.249c0,-6.434 -5.458,-11.581 -11.957,-11.581Z" style="fill:#f8f6fa;fill-rule:nonzero;"/><path d="M72.449,42.096l58.481,0l0,67.426l-19.494,0l0,-6.434c0,-1.801 -1.557,-3.346 -3.376,-3.346l-6.498,0l0,-9.522c0,-1.801 -1.56,-3.346 -3.379,-3.346l-9.617,0c-1.819,0 -3.379,1.544 -3.379,3.346l0,9.522l-6.498,0c-1.819,0 -3.379,1.544 -3.379,3.346l0,6.434l-3.119,0l0.26,-67.426Zm9.617,67.426l0,-3.088l6.498,0c1.819,0 3.379,-1.544 3.379,-3.346l0,-9.522l3.119,0l0,9.779c0,1.801 1.56,3.346 3.119,3.346l6.498,0l0,3.088l-22.613,-0.257Zm-12.994,6.691l64.976,0c1.819,0 3.379,-1.544 3.379,-3.346l0,-73.86c0,-1.801 -1.56,-3.346 -3.379,-3.346l-64.976,0c-1.819,0 -3.379,1.544 -3.379,3.346l0,73.86c0.26,1.801 1.56,3.346 3.379,3.346Z" style="fill:#f8f6fa;fill-rule:nonzero;"/><path d="M129.11,138.603c-0.78,0 -1.56,-0.772 -1.56,-1.544c0,-0.772 0.78,-1.544 1.56,-1.544c0.78,0 1.56,0.772 1.56,1.544c0.26,0.772 -0.52,1.544 -1.56,1.544Zm0,-9.522c-4.419,0 -8.058,3.603 -8.058,7.978c0,4.375 3.639,7.978 8.058,7.978c4.419,0 8.058,-3.603 8.058,-7.978c0,-4.375 -3.639,-7.978 -8.058,-7.978Z" style="fill:#f8f6fa;fill-rule:nonzero;"/><path d="M109.619,138.603c-0.782,0 -1.56,-0.772 -1.56,-1.544c0,-0.772 0.777,-1.544 1.56,-1.544c0.777,0 1.557,0.772 1.557,1.544c0.26,0.772 -0.52,1.544 -1.557,1.544Zm0,-9.522c-4.419,0 -8.058,3.603 -8.058,7.978c0,4.375 3.639,7.978 8.058,7.978c4.416,0 8.055,-3.603 8.055,-7.978c0,-4.375 -3.639,-7.978 -8.055,-7.978Z" style="fill:#f8f6fa;fill-rule:nonzero;"/><path d="M109.619,157.904c-0.782,0 -1.56,-0.772 -1.56,-1.544c0,-0.772 0.777,-1.544 1.56,-1.544c0.777,0 1.557,0.772 1.557,1.544c0.26,0.772 -0.52,1.544 -1.557,1.544Zm0,-9.522c-4.419,0 -8.058,3.603 -8.058,7.978c0,4.375 3.639,7.978 8.058,7.978c4.416,0 8.055,-3.603 8.055,-7.978c0,-4.375 -3.639,-7.978 -8.055,-7.978Z" style="fill:#f8f6fa;fill-rule:nonzero;"/><path d="M129.11,157.904c-0.78,0 -1.56,-0.772 -1.56,-1.544c0,-0.772 0.78,-1.544 1.56,-1.544c0.78,0 1.56,0.772 1.56,1.544c0.26,0.772 -0.52,1.544 -1.56,1.544Zm0,-9.522c-4.419,0 -8.058,3.603 -8.058,7.978c0,4.375 3.639,7.978 8.058,7.978c4.419,0 8.058,-3.603 8.058,-7.978c0,-4.375 -3.639,-7.978 -8.058,-7.978Z" style="fill:#f8f6fa;fill-rule:nonzero;"/><path d="M90.384,149.926l-5.199,0c-1.819,0 -3.379,1.544 -3.379,3.088l0,4.89l-3.379,0l0,-4.89c0,-1.801 -1.56,-3.088 -3.379,-3.088l-4.939,0l0,-3.346l4.939,0c1.819,0 3.379,-1.544 3.379,-3.346l0,-4.89l3.639,0l0,4.89c0,1.801 1.56,3.346 3.379,3.346l4.939,0l0,3.346Zm3.119,-9.779l-4.939,0l0,-4.89c0,-1.801 -1.56,-3.346 -3.379,-3.346l-9.877,0c-1.819,0 -3.119,1.544 -3.119,3.346l0,4.89l-4.936,0c-1.819,0 -3.379,1.544 -3.379,3.346l0,9.522c0,1.801 1.56,3.346 3.379,3.346l4.936,0l0,4.89c0,1.801 1.562,3.346 3.119,3.346l9.877,0c1.819,0 3.379,-1.544 3.379,-3.346l0,-4.89l4.939,0c1.819,0 3.119,-1.544 3.119,-3.346l0,-9.522c0,-1.801 -1.3,-3.346 -3.119,-3.346Z" style="fill:#f8f6fa;fill-rule:nonzero;"/><path d="M104.94,54.963l3.119,0l0,9.779c0,1.801 1.56,3.346 3.376,3.346l6.498,0l0,3.346l-12.994,0l0,-16.471Zm-3.379,22.647l19.492,0c1.819,0 3.379,-1.544 3.379,-3.346l0,-9.522c0,-1.801 -1.56,-3.346 -3.379,-3.346l-6.498,0l0,-9.522c0,-1.801 -1.557,-3.346 -3.119,-3.346l-9.875,0c-1.819,0 -3.379,1.544 -3.379,3.346l0,22.39c0,1.801 1.56,3.346 3.379,3.346Z" style="fill:#f8f6fa;fill-rule:nonzero;"/><path d="M160.039,48.272c-0.26,-1.801 -1.819,-3.088 -3.639,-2.831c-1.819,0.257 -3.119,1.801 -2.859,3.603c0.26,1.801 1.819,3.088 3.639,2.831c1.819,-0.257 3.119,-1.801 2.859,-3.603Z" style="fill:#f8f6fa;fill-rule:nonzero;"/><path d="M40.221,109.522c1.819,-0.257 3.119,-1.801 2.859,-3.603c-0.26,-1.801 -1.819,-3.088 -3.639,-2.831c-1.819,0.257 -3.119,1.801 -2.859,3.603c0.26,1.801 1.819,3.088 3.639,2.831Z" style="fill:#f8f6fa;fill-rule:nonzero;"/><path d="M159.779,145.037c-1.819,0.257 -3.119,1.801 -2.859,3.603c0.26,1.801 1.819,3.088 3.639,2.831c1.819,-0.257 3.119,-1.801 2.859,-3.603c-0.26,-1.801 -1.819,-3.088 -3.639,-2.831Z" style="fill:#f8f6fa;fill-rule:nonzero;"/></g></g></svg>