<?xml version="1.0" encoding="UTF-8" standalone="no"?><!DOCTYPE svg PUBLIC "-//W3C//DTD SVG 1.1//EN" "http://www.w3.org/Graphics/SVG/1.1/DTD/svg11.dtd"><svg width="100%" height="100%" viewBox="0 0 200 200" version="1.1" xmlns="http://www.w3.org/2000/svg" xmlns:xlink="http://www.w3.org/1999/xlink" xml:space="preserve" xmlns:serif="http://www.serif.com/" style="fill-rule:evenodd;clip-rule:evenodd;stroke-linejoin:round;stroke-miterlimit:2;"><rect id="Mesa-de-trabajo5" serif:id="Mesa de trabajo5" x="0" y="0" width="200" height="200" style="fill:none;"/><g id="Mesa-de-trabajo51" serif:id="Mesa de trabajo5"><g><path d="M168.061,122.724c0,4.644 -6.93,10.081 -13.17,12.035c-1.653,0.516 -2.777,2.046 -2.777,3.778l0,18.965l-32.017,-21.49c-0.654,-0.442 -1.425,-0.682 -2.21,-0.682l-73.346,0c-6.956,0 -12.614,-5.658 -12.614,-12.606l0,-71.071c0,-6.956 5.658,-12.614 12.614,-12.614l110.912,0c6.95,0 12.608,5.658 12.608,12.614l0,71.071Zm-12.608,-91.616l-110.912,0c-11.329,0 -20.544,9.215 -20.544,20.544l0,71.071c0,11.335 9.215,20.55 20.544,20.55l72.136,0l37.192,24.957c0.665,0.442 1.436,0.662 2.21,0.662c0.638,0 1.274,-0.147 1.863,-0.461c1.29,-0.68 2.101,-2.025 2.101,-3.502l0,-23.628c7.225,-3.059 15.961,-9.694 15.961,-18.578l0,-71.071c0,-11.329 -9.215,-20.544 -20.552,-20.544Z" style="fill:#fff;fill-rule:nonzero;"/><path d="M146.652,67.698l-93.551,0c-1.486,0 -2.698,-1.211 -2.698,-2.698c0,-1.487 1.213,-2.696 2.698,-2.696l93.551,0c1.486,0 2.696,1.209 2.696,2.696c0,1.487 -1.211,2.698 -2.696,2.698Zm0,-10.153l-93.551,0c-4.11,0 -7.457,3.343 -7.457,7.455c0,4.11 3.347,7.455 7.457,7.455l93.551,0c4.11,0 7.455,-3.345 7.455,-7.455c0,-4.112 -3.345,-7.455 -7.455,-7.455Z" style="fill:#fff;fill-rule:nonzero;"/><path d="M146.652,89.564l-93.551,0c-1.486,0 -2.698,-1.209 -2.698,-2.696c0,-1.487 1.213,-2.696 2.698,-2.696l93.551,0c1.486,0 2.696,1.209 2.696,2.696c0,1.487 -1.211,2.696 -2.696,2.696Zm0,-10.153l-93.551,0c-4.11,0 -7.457,3.345 -7.457,7.457c0,4.11 3.347,7.455 7.457,7.455l93.551,0c4.11,0 7.455,-3.345 7.455,-7.455c0,-4.112 -3.345,-7.457 -7.455,-7.457Z" style="fill:#fff;fill-rule:nonzero;"/><path d="M146.652,110.678l-93.551,0c-1.486,0 -2.698,-1.209 -2.698,-2.698c0,-1.485 1.213,-2.695 2.698,-2.695l93.551,0c1.486,0 2.696,1.209 2.696,2.695c0,1.489 -1.211,2.698 -2.696,2.698Zm0,-10.151l-93.551,0c-4.11,0 -7.457,3.343 -7.457,7.453c0,4.112 3.347,7.464 7.457,7.464l93.551,0c4.11,0 7.455,-3.352 7.455,-7.464c0,-4.11 -3.345,-7.453 -7.455,-7.453Z" style="fill:#fff;fill-rule:nonzero;"/></g></g></svg>