<?xml version="1.0" encoding="UTF-8" standalone="no"?><!DOCTYPE svg PUBLIC "-//W3C//DTD SVG 1.1//EN" "http://www.w3.org/Graphics/SVG/1.1/DTD/svg11.dtd"><svg width="100%" height="100%" viewBox="0 0 200 200" version="1.1" xmlns="http://www.w3.org/2000/svg" xmlns:xlink="http://www.w3.org/1999/xlink" xml:space="preserve" xmlns:serif="http://www.serif.com/" style="fill-rule:evenodd;clip-rule:evenodd;stroke-linejoin:round;stroke-miterlimit:2;"><rect id="Mesa-de-trabajo6" serif:id="Mesa de trabajo6" x="0" y="0" width="200" height="200" style="fill:none;"/><g id="Mesa-de-trabajo61" serif:id="Mesa de trabajo6"><g><g><path d="M112.014,187.932l1.521,-1.521l1.521,1.521l-0.358,0.358l-1.163,-1.163l-1.163,1.163l-0.358,-0.358Z" style="fill:#f1ab1d;fill-rule:nonzero;"/><path d="M113.694,185.933c-0.088,-0.088 -0.231,-0.088 -0.318,0c-0.088,0.088 -0.088,0.231 0,0.318l0.159,0.159l0.159,-0.159c0.088,-0.088 0.088,-0.23 0,-0.318m-0.891,0.159c0,-0.187 0.071,-0.375 0.214,-0.518c0.285,-0.285 0.75,-0.285 1.035,0l0,0c0.285,0.285 0.285,0.75 -0,1.035l-0.517,0.517l-0.517,-0.517c-0.143,-0.143 -0.214,-0.33 -0.214,-0.517" style="fill:#f1ab1d;fill-rule:nonzero;"/><path d="M111.396,187.877l2.139,2.14l2.139,-2.14c0.198,0.198 0.198,0.519 0,0.717l-2.139,2.14l-2.139,-2.14c-0.198,-0.198 -0.198,-0.519 0,-0.717" style="fill:#f1ab1d;fill-rule:nonzero;"/><path d="M112.073,189.995c0.031,-0.031 0.081,-0.031 0.112,0l1.295,1.295c0.031,0.031 0.081,0.031 0.112,0l1.295,-1.295c0.031,-0.031 0.081,-0.031 0.112,0c0.167,0.167 0.167,0.438 0,0.605l-1.407,1.407c-0.031,0.031 -0.081,0.031 -0.112,0l-1.407,-1.407c-0.167,-0.167 -0.167,-0.438 0,-0.605" style="fill:#f1ab1d;fill-rule:nonzero;"/></g><path d="M142,19.189l0,27.312c0,-2.04 -0.267,-4.013 -0.773,-5.893c0,-0.005 0,-0.005 -0.006,-0.011c-1.896,-7.066 -7.11,-12.764 -13.876,-15.332l0,-6.076c0,-3.046 2.468,-5.515 5.515,-5.515l3.625,0c3.046,0 5.515,2.468 5.515,5.515" style="fill:#fff;fill-rule:nonzero;"/><path d="M122.868,92.522c0,9.057 -7.343,16.394 -16.394,16.394l-13.669,0c-9.051,0 -16.394,-7.336 -16.394,-16.394l0,-34.552c0,-9.05 7.343,-16.393 16.394,-16.393l13.669,0c9.051,0 16.394,7.343 16.394,16.393l0,34.552Zm17.993,-46.708c0,-0.007 0,-0.007 -0.007,-0.015c-2.457,-9.159 -9.216,-16.545 -17.986,-19.873c-3.243,-1.232 -6.759,-1.91 -10.434,-1.91l-25.588,0c-3.675,0 -7.191,0.677 -10.434,1.91l0,-11.155c0,-3.949 -3.199,-7.149 -7.148,-7.149l-4.699,0c-3.949,0 -7.148,3.2 -7.148,7.149l0,82.276c0,2.544 0.324,5.008 0.929,7.357c0,0 0,0.007 0.007,0.015c3.264,12.689 14.779,22.057 28.492,22.057l25.588,0c15.305,0 27.88,-11.681 29.291,-26.619l0.007,-0.007c0.086,-0.922 0.13,-1.859 0.13,-2.803l0,-43.595c0,-2.645 -0.346,-5.202 -1.001,-7.638" style="fill:#fff;fill-rule:nonzero;"/><path d="M106.721,94.951c0.123,-0.526 0.195,-1.071 0.195,-1.634c0,-0.167 -0.014,-0.331 -0.025,-0.496c-0.001,-0.059 -0.004,-0.089 -0.004,-0.089l-0.001,0c-0.302,-3.703 -3.428,-6.617 -7.248,-6.617c-3.819,0 -6.945,2.914 -7.247,6.617l-0.001,0c0,0 -0.001,0.03 -0.003,0.089c-0.011,0.165 -0.026,0.328 -0.026,0.496c0,0.563 0.072,1.108 0.196,1.634c0.432,2.81 1.935,7.929 7.081,13.243c5.147,-5.314 6.649,-10.433 7.082,-13.243" style="fill:#f3ac1f;fill-rule:nonzero;"/><path d="M31.987,169.556c-0.147,0.402 -0.383,0.713 -0.713,0.932c-0.658,0.438 -1.644,0.658 -2.96,0.658l-7.234,0l0,-5.646l2.466,0c1.023,0 2.055,0.01 3.096,0.028c1.042,0.019 2,0.074 2.878,0.164c0.876,0.092 1.46,0.229 1.753,0.411c0.329,0.219 0.566,0.53 0.713,0.932c0.145,0.402 0.219,0.822 0.219,1.261c0,0.438 -0.074,0.858 -0.219,1.26m6.33,-8.166c-1.261,-0.877 -2.897,-1.543 -4.905,-2c-2.01,-0.456 -4.458,-0.685 -7.344,-0.685l-4.987,0l0,-7.016l6.85,0c2.155,0 3.233,0.877 3.233,2.632c0,0.913 -0.274,1.588 -0.822,2.027c1.608,0.329 2.968,0.713 4.083,1.152c1.114,0.438 2.256,1.078 3.425,1.918c0.402,-0.255 0.703,-0.511 0.904,-0.767c0.201,-0.255 0.43,-0.585 0.685,-0.987c0.402,-0.583 0.748,-1.371 1.042,-2.357c0.292,-0.986 0.419,-2.055 0.383,-3.206c-0.037,-1.151 -0.265,-2.302 -0.685,-3.453c-0.42,-1.151 -1.123,-2.201 -2.11,-3.151c-0.987,-0.949 -2.302,-1.717 -3.946,-2.302c-1.644,-0.584 -3.709,-0.877 -6.193,-0.877l-11.399,0c-1.753,0 -3.024,0.512 -3.809,1.534c-0.786,1.023 -1.178,2.467 -1.178,4.33l0,26.471c0,1.864 0.392,3.307 1.178,4.33c0.785,1.023 2.055,1.534 3.809,1.534l11.783,0c2.375,0 4.421,-0.301 6.138,-0.904c1.718,-0.603 3.124,-1.416 4.22,-2.44c1.096,-1.022 1.909,-2.22 2.439,-3.59c0.529,-1.369 0.795,-2.822 0.795,-4.356c0,-1.718 -0.284,-3.233 -0.849,-4.55c-0.567,-1.315 -1.48,-2.411 -2.74,-3.288" style="fill:#fff;fill-rule:nonzero;"/><path d="M48.948,156.128c1.59,-1.351 3.608,-2.045 6.056,-2.083l0,-2.357l11.234,0c1.645,0 2.868,-0.402 3.673,-1.205c0.877,-0.767 1.315,-1.936 1.315,-3.508c0,-1.534 -0.438,-2.685 -1.315,-3.453c-0.476,-0.474 -1.042,-0.795 -1.699,-0.959c-0.658,-0.164 -1.315,-0.246 -1.973,-0.246l-15.784,0c-1.608,0 -2.85,0.493 -3.727,1.479c-0.841,1.061 -1.26,2.522 -1.26,4.384l0,12.934c0.73,-1.973 1.89,-3.635 3.48,-4.988" style="fill:#fff;fill-rule:nonzero;"/><path d="M66.459,171.145l-11.454,0l0,-5.371l10.139,0c1.679,0 2.923,-0.402 3.727,-1.206c0.511,-0.474 0.886,-1.151 1.123,-2.028c0.238,-0.877 0.247,-1.754 0.028,-2.632c-0.219,-0.877 -0.713,-1.643 -1.48,-2.302c-0.767,-0.658 -1.9,-0.986 -3.398,-0.986l-10.139,0c-0.293,0 -0.585,0.01 -0.877,0.027c-0.293,0.019 -0.585,0.047 -0.877,0.082c-1.096,0.11 -2.119,0.43 -3.069,0.96c-0.95,0.529 -1.772,1.215 -2.466,2.055c-0.694,0.841 -1.242,1.8 -1.644,2.878c-0.402,1.078 -0.603,2.22 -0.603,3.425l0,8.659c0,1.791 0.392,3.206 1.178,4.247c0.786,1.042 2.055,1.563 3.81,1.563l16.003,0c1.534,0 2.749,-0.365 3.645,-1.097c0.895,-0.73 1.343,-1.918 1.343,-3.563c0,-1.643 -0.448,-2.841 -1.343,-3.59c-0.896,-0.748 -2.11,-1.123 -3.645,-1.123" style="fill:#fff;fill-rule:nonzero;"/><path d="M116.825,147.962c-1.316,-3.763 -3.582,-5.644 -6.796,-5.644c-3.216,0 -5.481,1.882 -6.796,5.644l-3.069,8.824c-0.402,1.133 -0.804,2.284 -1.206,3.453c-0.402,1.169 -0.776,2.265 -1.123,3.288c-0.348,1.023 -0.658,1.937 -0.932,2.739c-0.274,0.805 -0.485,1.426 -0.63,1.863c1.206,-1.717 2.841,-2.932 4.905,-3.644c2.063,-0.713 4.21,-1.05 6.439,-1.014c0.11,-0.292 0.292,-0.84 0.548,-1.645c0.255,-0.803 0.529,-1.625 0.822,-2.466l1.041,-3.233l3.179,9.646l-6.358,0c-1.352,0 -2.667,0.147 -3.946,0.438c-1.279,0.293 -2.466,0.74 -3.562,1.344c-1.097,0.603 -2.065,1.38 -2.905,2.329c-0.841,0.951 -1.498,2.083 -1.973,3.398c-0.403,1.243 -0.585,2.284 -0.548,3.124c0.036,0.841 0.292,1.663 0.767,2.466c0.328,0.548 0.822,0.979 1.479,1.289c0.658,0.311 1.371,0.465 2.138,0.465c1.133,0 2.156,-0.347 3.069,-1.042c0.402,-0.328 0.758,-0.748 1.069,-1.26c0.31,-0.512 0.575,-1.031 0.795,-1.562c0.219,-0.529 0.392,-1.014 0.521,-1.452c0.127,-0.438 0.227,-0.748 0.301,-0.932l11.948,0l0.548,1.535c0.548,1.643 1.242,2.859 2.083,3.644c0.84,0.786 2.046,1.105 3.618,0.96c0.73,-0.11 1.342,-0.274 1.836,-0.493c0.493,-0.22 0.94,-0.603 1.343,-1.152c0.511,-0.767 0.767,-1.57 0.767,-2.411c0,-0.84 -0.202,-1.899 -0.603,-3.179l-8.769,-25.32Z" style="fill:#fff;fill-rule:nonzero;"/><path d="M153.023,145.496c-1.297,-1.096 -2.841,-1.899 -4.631,-2.411c-1.79,-0.512 -3.782,-0.767 -5.973,-0.767l-9.317,0c-1.608,0 -2.814,0.454 -3.618,1.362c-0.658,0.836 -1.023,1.726 -1.096,2.67c-0.073,0.945 0.063,1.816 0.411,2.615c0.347,0.8 0.877,1.453 1.589,1.961c0.713,0.509 1.543,0.763 2.494,0.763l9.974,0c1.753,0.073 2.95,0.479 3.59,1.215c0.638,0.735 0.96,1.728 0.96,2.978c0,1.324 -0.348,2.364 -1.042,3.117c-0.694,0.754 -2.01,1.13 -3.946,1.13l-4.768,0l0,-5.784c-0.841,0 -1.708,-0.008 -2.603,-0.028c-0.896,-0.018 -1.772,-0.136 -2.631,-0.357c-0.859,-0.221 -1.663,-0.588 -2.411,-1.102c-0.75,-0.514 -1.38,-1.267 -1.891,-2.259l0,24.044c0,1.867 0.384,3.313 1.151,4.337c0.767,1.025 1.973,1.537 3.618,1.537c1.644,0 2.85,-0.511 3.617,-1.534c0.767,-1.023 1.151,-2.466 1.151,-4.33l0,-5.919l4.768,0c3.398,0 6.522,-0.658 9.372,-1.973c0.658,-0.329 1.306,-0.813 1.945,-1.452c0.638,-0.639 1.206,-1.416 1.699,-2.33c0.493,-0.913 0.886,-1.964 1.178,-3.151c0.292,-1.187 0.438,-2.494 0.438,-3.919c0,-2.411 -0.347,-4.475 -1.041,-6.193c-0.694,-1.718 -1.69,-3.124 -2.987,-4.22" style="fill:#fff;fill-rule:nonzero;"/><path d="M154.311,172.131c-0.11,-0.255 -0.238,-0.511 -0.383,-0.767c-0.183,-0.438 -0.384,-0.877 -0.603,-1.315c-0.219,-0.438 -0.402,-0.803 -0.548,-1.096c-2.193,0.877 -4.549,1.315 -7.07,1.315c-0.877,0 -1.754,-0.054 -2.631,-0.164l1.918,4.111c0.255,0.512 0.501,1.032 0.74,1.562c0.237,0.53 0.501,1.105 0.795,1.726c0.621,1.171 1.37,2.02 2.247,2.549c0.877,0.529 1.754,0.794 2.631,0.794c0.767,0 1.47,-0.183 2.11,-0.548c0.638,-0.365 1.141,-0.886 1.507,-1.563c0.364,-0.675 0.539,-1.497 0.52,-2.466c-0.019,-0.968 -0.301,-2.073 -0.85,-3.316c-0.146,-0.292 -0.274,-0.566 -0.383,-0.822" style="fill:#fff;fill-rule:nonzero;"/><path d="M187.14,143.523c-0.805,-0.803 -2.028,-1.205 -3.673,-1.205l-20.771,0c-1.534,0 -2.75,0.365 -3.645,1.096c-0.895,0.731 -1.343,1.918 -1.343,3.562c0,1.572 0.439,2.741 1.316,3.508c0.803,0.803 2.028,1.205 3.672,1.205l5.59,0l0,6.96c0.219,-0.949 0.567,-1.844 1.042,-2.685c0.474,-0.84 1.123,-1.57 1.945,-2.192c0.822,-0.621 1.836,-1.115 3.042,-1.481c1.205,-0.364 2.666,-0.565 4.384,-0.603l4.768,0c1.644,0 2.868,-0.402 3.673,-1.205c0.877,-0.767 1.315,-1.936 1.315,-3.508c0,-1.534 -0.438,-2.685 -1.315,-3.453" style="fill:#fff;fill-rule:nonzero;"/><path d="M168.286,163.362l0,11.29c0,0.804 0.082,1.562 0.246,2.275c0.165,0.713 0.439,1.334 0.822,1.863c0.383,0.53 0.886,0.951 1.507,1.261c0.621,0.311 1.371,0.465 2.247,0.465c0.876,0 1.616,-0.155 2.22,-0.465c0.603,-0.31 1.086,-0.731 1.452,-1.261c0.364,-0.529 0.63,-1.151 0.795,-1.863c0.164,-0.713 0.246,-1.47 0.246,-2.275l0,-20.716c-2.996,0.109 -5.334,0.968 -7.015,2.575c-1.681,1.608 -2.521,3.892 -2.521,6.851" style="fill:#fff;fill-rule:nonzero;"/><path d="M79.915,178.463l-0.396,-0.134c-1.322,-0.447 -2.031,-1.882 -1.583,-3.203l8.818,-26.048c0.447,-1.322 1.882,-2.031 3.203,-1.583l0.396,0.134c1.322,0.447 2.031,1.882 1.583,3.203l-8.817,26.048c-0.447,1.322 -1.882,2.031 -3.203,1.583" style="fill:#f3ac1f;fill-rule:nonzero;"/><g transform="matrix(10.700426,0,0,10.700426,189.129119,192.283659)"></g><text x="10.474px" y="192.284px" style="font-family:'Consolas', monospace;font-size:10.7px;fill:#fff;">F<tspan x="19.567px 28.66px 37.754px 46.847px 55.94px 65.033px 74.127px 83.22px 92.313px 101.407px 110.5px 119.593px 128.686px 137.78px 146.873px 155.966px 165.059px 174.153px 183.246px " y="192.284px 192.284px 192.284px 192.284px 192.284px 192.284px 192.284px 192.284px 192.284px 192.284px 192.284px 192.284px 192.284px 192.284px 192.284px 192.284px 192.284px 192.284px 192.284px ">REELANCERS CREATORS</tspan></text></g></g></svg>